<?xml version="1.0" encoding="UTF-8"?>
<svg version="1.1" viewBox="0 0 1920 1080" width="1920" height="1080" xmlns="http://www.w3.org/2000/svg">
<path transform="translate(148,822)" d="m0 0 10 1 10 4 9 9 4 8 1 7h11l17 4 14 8 11 6 7 9 6 17 22 7 10 8 10-10 3-1 4-6 7-8 6-3 11-2 1 1 11 2 3-1 1-3 7-5 9-2 13 1 5-5 10-6 9-1 10 2 5 4h13l10 4 9 6 8 10 4 8 2 8v11l16 3 8 4 7 6 3 6h12l9 5 6 8 2 4 1 9v9l5 2 5 5 4 5 6 14 1 4v7l-2 14-1 13-1 2 9 2 14 9 10 10 6 10 3 13v2h-574v-244l5 5 3 5v5h8l12 3 6 5 6 12 2 8 5-3h8l3 2h14l5 3 6-9 8-7 8-3 7-12 7-7 15-10 9-7z" fill="#4843AA"/>
<path transform="translate(295,900)" d="m0 0h8l11 3 12 6 10 9 7 10 5 15v4l3 1v9l2 4v6l-2 5 5 2 5 5 3 6 1 11-2 12-3 9 1 9 3 2 5 1-2 9-1 2-3-1-6-8-5-5-8-2-16-2-3-2v-6l7-8 5-6 1-2v-10l-2-5-5-4-5-15-2-2 1-7 3-6 4-3h2l-1-11-4-8-1-3-15-6-4-1h-21l-3 2-1 6-3-1-2-3 1-5 5-9 7-6z" fill="#EE84E2"/>
<path transform="translate(484,937)" d="m0 0 11 1 8 5 4 6 2 6 1 13 4 4 8 6 4 5 3 8 3 14v16l-2 14-3 6 11 1 10 5 12 11 5 8 7 14h-7l-4-5-3-1-17-1 1-6 2-6-1-7-4-6-2-1 3 6v12l-2 4-5-1-9-6-9-8v-5l6-5 2-4v-8l-3-9-8-9-12-9-10-6-6-4 1-5 2-9 7-6h5l1-10-2-5h-2l-8-8h-3l1-9z" fill="#ED83E1"/>
<path transform="translate(0,844)" d="m0 0 4 4 3 5 16 4 6 4 6 7 4 8 1 6-5 5-7-14-9-8-5-2h-3l8 4 8 8 4 10v10l-2 2-9 2-16-8v15l-3 5h-1z" fill="#EB82E1"/>
<path transform="translate(211,887)" d="m0 0 7 2 3 3 8 3 2 3-1 6 4-1-5 5-3 5-3 3-9 2-11 7-3 1-2-1v-15l1-6h2l2-5 3-5 2-3h2z" fill="#ED83E1"/>
<path transform="translate(376,1037)" d="m0 0h14l6 3 6 7 2 5-1 9-4 9-4 4-4-1-8-6-2-5-1-12-1-4-5-2-7-1v-3z" fill="#EE84E2"/>
<path transform="translate(439,1037)" d="m0 0 22 4 8 4 2 2 1-9h1l2 10v8l-2 5-12 3h-11l-2-1v-2h-2l1-14-3-4v-2l-5-2z" fill="#EE84E2"/>
<path transform="translate(461,927)" d="m0 0 6 1 7 3 5 8v7l-2 4-1 6h-2l-6-9-6 3-6-1-6-6-1-4 2-3h7l9 5-4-9-2-2z" fill="#EE84E2"/>
<path transform="translate(416,873)" d="m0 0 10 3 5 4 7 9 4 5 5 3 1 10-4-2-1-3-5-5-2-5h-2l-4-5v-2h-2v-2l-3-1v-2h-2v-2l-5-2-2-1z" fill="#E781DF"/>
<path transform="translate(436,1019)" d="m0 0 6 1v3l-3 1-2 10-3 3h-4v-10l3-6z" fill="#EE84E2"/>
<path transform="translate(391,867)" d="m0 0h6l3 3 1 3v7l-2 5h-4l-2-10z" fill="#EE84E2"/>
<path transform="translate(285,993)" d="m0 0 5 1 1 2v6l-2 4-4-1-3-5 2-6z" fill="#EE84E2"/>
<path transform="translate(417,884)" d="m0 0 6 2 1 6-2 2-7-1-2-2v-5z" fill="#EE84E2"/>
<path transform="translate(340,1029)" d="m0 0 5 1 5 5-1 3-7-1-3-7z" fill="#F19BE7"/>
<path transform="translate(149,847)" d="m0 0 5 2-1 5-2 2h-6l2-7z" fill="#EE84E2"/>
<path transform="translate(432,986)" d="m0 0 4 3-2 6h-4l-1-3-2-1z" fill="#F2A6E9"/>
<path transform="translate(403,919)" d="m0 0 4 1 1 4-2 2-5-1-1-4z" fill="#EE84E2"/>
<path transform="translate(188,1075)" d="m0 0 4 1 1 4h-7v-4z" fill="#FAE5F8"/>
</svg>
