<?xml version="1.0" encoding="UTF-8"?>
<svg version="1.1" viewBox="0 0 1600 900" width="1920" height="1080" xmlns="http://www.w3.org/2000/svg">
<path transform="translate(1514)" d="m0 0h86v900h-800l7-11 7-9 9-7 15-5 4-1h25l7 3 5 3 6-11 8-7 10-3h9l12 6 8 6 12 3 10 4 3-4 5-5 5-2 6-1 5-10 9-9 10-5 3-1h17l7-10 4-6 5-5 9-6 10-2 13 1 15-2 2-7 9-10 9-6 13-6 4-1h7l14 4v-15l5-8 7-8 10-7 16-8 4-1 17-1 1-9 7-14 9-9 10-4 9-1 7 1 9-5 7-3 9-4 10 1 12 6 2 2v-7l3-8 7-8 8-5 11-4h4v-9l2-11 6-10 7-8 14-9 14-5 7-1 22-1-1-4v-12l4-9 6-7 12-4h2l1-8 8-11 9-10 12-9 6-2v-15l8-19 6-9 1-3 2-18 7-13 7-6 14-8h4l-5-10-1-6v-28l6-12 4-5 10-7 10-5 1-9 7-10 8-4h12l3 1-2-6-5-4-9-4-9-7-2-4-3-14-3-5-6-4-3-5-1-5v-8l5-14 8-11 8-10 7-7 2-9 9-8 15-8 3-3-4-7-2-7-1-8v-12l7-14 3-16 1-4-7-14-1-4v-19l2-10 3-6-2-17v-7l2-5-13-4-11-7-11-10v-2l-5-2-9-11-6-8-4-10z" fill="#D682C3"/>
<path transform="translate(1516,673)" d="m0 0 3 1-12 8-2 5v5l-2-1v-2l-7 1-8 6-3 5-5 5-1 2v8l24 2 2 1 15-1 9 2 5 5 10 7 3 3 2 7v4h19l7 6 3 5 3 10 7 8 2 5v7l-4 12-2 3v9l-6 10-5 6-12 6-6 2 1 3-2 3 14 10 2 5v8l-6 9-5 4 15 5 10 6 10 8 3 4h-270l-7-18v-15l5-12 9-11 9-6 12-5 5-1 1-6 6-9 9-6 5-3h13l13 2-1-6v-8l6-22 7-8 8-6 1-12h2l1-5 7-9 7-6 12-7 12-3h8l-1-3v-8l8-10 9-8 3-2 6-1 2-6 11-6z" fill="#302458"/>
<path transform="translate(1422,727)" d="m0 0h8l2 2-10 1-8 4-3 5-3 17 4-1v-4l5-1 6 2v-5l3 1v5l-2 1 2 5-5 1-2 4 1 1-6 7-5 16-2 8v14l-13-1h-13l-10 6-5 5-4 6-2 6-15 6-8 5-5 4-7 10-4 10v15l6 16v2h-304l4-3 16-5 4-2 8-10 8-7 9-4h15l10 4 6 3 2-5v-4h2v-2h2l-3-10v-11l1-7 2-4 2-18 6-12 9-8 12-3h11l-2-7 3-5 2-2h3v2h-2l-2 5-1 9-12 1-10 3-10 9-4 8v16l3 2v2l12 2 6-7 9-5 3-2 7-2 1 3-1 2h2l1-3 5-1v-2h2v-2l9-4 9-6 5-2 9-1-6-1 2-3h2v-7l6-9 11-8 9-4 2-1 9-1 5-4 5-2v-2l7-3 9-2 1-2h-2l-1-2 1-13 1-1h6l1 3 3 3-1 2-3 1-2 14h-9l-10 3-8 6 3 2-1 1-14 1-10 4-10 7-2 3 3-1h5l-1 5 5-1 3-3h2l-2 4-6 7 1 4 10 8 4-1 14-9 9-3 12-1 4-1 5 6 3-1v-3l-2-1 2-3 2-8 6-6-2-6-5-2-4-2-2-7h-3v-7l2-5h2l2-4 9-10v3l-3 5-2 2h14l8 4 7 11v2l13-6h6l-4 3-10 4-11 8-5 6-1 2 5 1v2l4 2 6 5 2 2-1-4-3-1 1-2 3-2 4 3 10-1h11l11 1 7-2 3-1 1 1 1-5h8l7-3 3-5v-10l-2-4 1-4 3-1v-2h2v-2l2-1 9 1 4 4h3l4-10 3-7 5 3 3-7 7-6z" fill="#815098"/>
<path transform="translate(1353,658)" d="m0 0 3 1-14 7-7 6-5 3-2 4 2 1-2 4h2v2h-3l-5 10-5 4-7 3h-7l-6-2-11-7-8-4-4-1h-14l-17 7-17 1-9 3-7 5-6 9-2 4v13l3 10 5 5 5 1-1 2-7-1-1-3-5 3-2 2 1 7 1 4-3-3-3-6 2-5 4-4-1-5-3-3h-8l-12 3-8 4-9 7-9 2-2 5-4 8-4 11v5l2 4-7-2-7-3h-15l-13 5-10 7-7 8-4 8 8 2 5 5 4-2 8-10 8-11 7-5h4l1 9-2 1 1 2-7 6-5 11-2 18-2 4-1 7v11l1 5 2 1-1 4h-2l-2 7-2 4-6-2-10-4h-15l-9 4-8 7-9 11-16 5-7 3h-223l7-11 7-9 9-7 15-5 4-1h25l7 3 5 3 6-11 8-7 10-3h9l12 6 8 6 12 3 10 4 3-4 5-5 5-2 6-1 5-10 9-9 10-5 3-1h17l7-10 4-6 5-5 9-6 10-2 13 1 15-2 2-7 9-10 9-6 13-6 4-1h7l14 4v-15l5-8 7-8 10-7 16-8 4-1 17-1 1-9 7-14 9-9 10-4 9-1 7 1 9-5 7-3 9-4 10 1 12 6 2 2v-7l3-8 2-1-1 4v14l5 5h16l6-4 5-9 1-10 6-5 15-10z" fill="#A562AB"/>
<path transform="translate(1587,597)" d="m0 0 9 1 4 2v300l-4-1-9-8-13-8-12-4-5-1 5-4 6-8 1-2v-8l-2-5-10-7-4-3 2-5-1-2 12-4 9-6 7-11 1-7 1-6 4-9 1-4v-7l-4-8-5-5-4-12-6-7-7-1-14-1-3-11-6-5-6-4-5-5-10-2-14 1-2-1-10-1 2-2 1-7 5-10 5-5 10-4h2l2-4 2-2 1-11 6-8h2v-2h2l-1-2-8 9-1-2 4-7 2-6 3-3 3-9 7-11 8-7 4-3 5-1h15l8 4-3-4-1-2-5 1-3-1v-2h5l4-5 5-5 2-7-3-1z" fill="#804F97"/>
<path transform="translate(1514)" d="m0 0h86v117l-8-1-6-8v-2l-3-1v-1h12l-4-9-1-18-2-4-3-1-1-2v-17-2l-6 7-2 1 1 11 3 8-1 9-5 9-1 6v20l4 10 3 4-2 11-2 16-5 9-1 3v12l6 12 1 3h2l-1 5-8 9-16 7-3 3-4 13-6 5-8 12-11 23v8l6 10 4 5 3 12 7 9 8 6 9 2 2 4 2 11-5-1-3-8-5-4-9-4-9-7-2-4-3-14-3-5-6-4-3-5-1-5v-8l5-14 8-11 8-10 7-7 2-9 9-8 15-8 3-3-4-7-2-7-1-8v-12l7-14 3-16 1-4-7-14-1-4v-19l2-10 3-6-2-17v-7l2-5-13-4-11-7-11-10v-2l-5-2-9-11-6-8-4-10z" fill="#604294"/>
<path transform="translate(1585,49)" d="m0 0 1 3-1 1v19l4 1 2 4 1 18 4 9-2 1h-10l5 5 3 4v2h6l2 1v23l-5 2-2 11-1 3-3 1-3 10 1 4 4 2 3 9v8l-5 3-5 2 7 1v8l-3 11-8 6-7 5-6 11-1 11-6 18h-2l-1 5-1 3h-2l-1 6-6 13 4 2 6 8 1 8-1 4h-2l3 5 3 2 1 4-1 7h-2v-2h-7l-9-6-7-8-3-7-3-10-7-9-2-4v-8l14-28 8-10 4-2 2-10 3-5 4-3 14-6 7-8 2-5h-2l-7-12-1-3v-12l4-9 2-3 2-16 2-11-5-8-2-6v-20l2-9 5-9v-6l-3-8-1-11 3-1 2-4z" fill="#F7A1D9"/>
<path transform="translate(1599,140)" d="m0 0h1v180l-4-1-5-7-1-4v-8l-3-6-3-3 1 7-2 2-2 11-3 5-2 4 1 4 3 6v2l12 1 2 1 1 8-7 8-5 4-2 3-1 14-5 6-10 7-2 2 1-4 12-9 1-2 1-13 3-6 10-8 1-2v-6h-10l-5-5-4-6-10-4-7-2-1-4 2-6-2-7-4-6-5-2 5-13 3-7h2l1-5 1-3h2l2-9 3-9 1-11 6-11 8-6 7-5 3-11 1-8h-7l-4-2 12-3 1-1v-8l-3-9-5-3 1-6 3-8h3l1-10 2-5z" fill="#A462AA"/>
<path transform="translate(1587,597)" d="m0 0 9 1 4 2v47l-8 5-7 3-5-1-2-1h-7l-7 2-2 2v6l7 5v2h-2v2l-5 5-7 5h-2v2h-2l-1 6-8 5-2 3-2 6-3 2-10 2-9 6-1 5-3 1h-7l-2-1-10-1 2-2 1-7 5-10 5-5 10-4h2l2-4 2-2 1-11 6-8h2v-2h2l-1-2-8 9-1-2 4-7 2-6 3-3 3-9 7-11 8-7 4-3 5-1h15l8 4-3-4-1-2-5 1-3-1v-2h5l4-5 5-5 2-7-3-1z" fill="#A462AB"/>
<path transform="translate(1452,531)" d="m0 0h10l-4 2-7 1-8 5-3 3h-2l-1 7 6-3 8-6h5l1 3-3 6-5 6-9 5-2 3h-3v2h-2v5l-2 3 1 7v11l-3 9-4 2-4-3-7 2 2-4 4-3h3l1-10h-2l-3 9-5 4-7 8-6 5-1 10-4 5-9 3-6 7-6 11h-1v-6l5-12 4-7-4-1-6 3-3 5-4 1h-8l-7 3-3 3-1 7 7 2 2 3v7l-3 5-9 4-10 7-6 4-2 6-1 7-5 8-6 4h-16l-5-4-1-2v-14l2-5 10-7 20-8 3-12 2-9 9-12 5-5h2l1-3 15-7 5-2 6-1h22l2 1 1-11 3-12 6-9 10-6h5l1-7 4-10 9-12 12-9z" fill="#F8C8E7"/>
<path transform="translate(1422,727)" d="m0 0h8l2 2-10 1-8 4-3 5-3 17 4-1v-4l5-1 6 2v-5l3 1v5l-2 1 2 5-5 1-2 4 1 1-6 7-5 16-2 8v14l-13-1-4-1-20-1-8-5-2 1-4-2-9 1-5 7-8 1-1-3-16 2-9 2-1-1-1-14 1-4-4-2 1-2 3-2 4 3 10-1h11l11 1 7-2 3-1 1 1 1-5h8l7-3 3-5v-10l-2-4 1-4 3-1v-2h2v-2l2-1 9 1 4 4h3l4-10 3-7 5 3 3-7 7-6z" fill="#A663AB"/>
<path transform="translate(903,852)" d="m0 0h9l12 6 8 6 8 4v3l-5-2-4 1-4 5h-20l-10 5-7 6-1 2h2v2h-8l-15 6-7 4h-61l7-11 7-9 9-7 15-5 4-1h25l7 3 5 3 6-11 8-7z" fill="#F9C8E7"/>
<path transform="translate(1511,438)" d="m0 0 7 1-3 9-1 5v13l3 9v5l2 1-5 1-1 3h5l-2 4-4 2v2h-3v2l-4 1-2 4-4 4 1-4 8-10v-1l-5 5-4 5-3 7 2 1h-2l-1 12-4 9 3 1-2 1 1 4 5 1 3 3-1 2-2 1-5 19-1 3h-5l-1-2v-8l1-3-4-2-1-3v-17l8-13 1-2v-8l-5-6-2-4v-8l5-9 10-11 1-2-8 7-7 9-2 4v9l2 6-4 2-9-5-1-1-4 12-1 14h-2v6l-2 1-3-2v-22l4-10 4-9 5-5 5-15 4-11 8-7 9-6 2-3 6 1-1 11-2 12h2v-8l4-15z" fill="#F8C8E7"/>
<path transform="translate(1189,734)" d="m0 0h8l5 6-1 4-5 6-2 3h-2l-15 7h-2l1 11 1 6-15 7-4 1-2 3h-5v-5l2-3h2v-2l-5 3-2 6 1 5-17 2-7 3-3-1 2-3v-7l-7 3-5 4-10 14-7 8-4-2-3-2v-2l-6-1-2-1 2-6 6-8 8-7 12-6 6-2h15l13 5-2-3 1-8 5-12 5-9 10-4 11-8 13-4z" fill="#F8C9E7"/>
<path transform="translate(1550,344)" d="m0 0h8l4 2-1 11-5 4-3 1 1 1v6l-3 4-3 1-4 10-9 10-9 6h-2l-2 5h-2l-1 4h-2l-2 6-1 2 6-1 3 1v2l4-4h2l-2 6-1 8-4 5-3 2h-9l-2 4-3-1-3-6-2-9-1-11-1-2v-13l4-9 5-6h2v-2l13-7 9-8h2l-1-7 3-6 7-6z" fill="#F9C9E7"/>
<path transform="translate(1262,760)" d="m0 0h1l1 5 3-1 1 6v2l5 2 4 2 3 7-5 3-2 4-2 8v2 3h-2l-1 2-5-6-16 2-11 4-13 9-4-1-10-8-1-4 7-8 2-3-7 5-4-1 1-4h-6l-3 2 2-4 7-6 9-5 6-2 14-1-4-2 10-7 10-3h9z" fill="#D782C3"/>
<path transform="translate(1514)" d="m0 0h4l8 19 5 6 14 7 6 9 2 1v2l4 1 7 4 10 3h5l5-3-2 4-4 5-2 1 1 11 3 8-1 9-5 9-1 6v20l4 10 3 4-2 11-2 16-5 9-1 3v12l6 12 1 3h2l-1 5-8 9-16 7-3 3-4 13-6 5-8 12-11 23v8l6 10 4 5 3 12 7 9 8 6 9 2 2 4 2 11-5-1-3-8-5-4-9-4-9-7-2-4-3-14-3-5-6-4-3-5-1-5v-8l5-14 8-11 8-10 7-7 2-9 9-8 15-8 3-3-4-7-2-7-1-8v-12l7-14 3-16 1-4-7-14-1-4v-19l2-10 3-6-2-17v-7l2-5-13-4-11-7-11-10v-2l-5-2-9-11-6-8-4-10z" fill="#3A295F"/>
<path transform="translate(1558,320)" d="m0 0h5l10 4 7 10 2 1h10l1 1v6l-5 6-7 5-2 5-1 13-5 5-9 7-2 12-1 10h-14l-10 5-8 6h-2l-2 3h-2v-2l-7 1-2-1 2-6 1-2h2l1-4h2l2-5 11-7 9-10 3-9 5-3 1-2v-6l-1-2 7-3 1-1 2-13-2-9 1-9-1-4z" fill="#D782C3"/>
<path transform="translate(1260,688)" d="m0 0h14l11 4 10 7 3 2 12 3-1 7-4 13-5-2-7-7-5-6-4-2-9-1-3-2h-13l-13 5h-2v4l-17 3-4 1-2 12 1 2v8l-3 5-7 3-5-2-4-6-2-8v-13l6-10 4-5 8-5 7-2 17-1z" fill="#F8CAE8"/>
<path transform="translate(1045,808)" d="m0 0h15l23 1 7 5-1 4-6 3-4 3-16-2-1-1h-14l-8 4h-4l-1 3-9 7-9 9h-2l-5 5-6 9h-2l-1 5-2 3-6 2-4 1-2 6-4 1h-7l-2-1v2l-9 6-4-1-4-5v-6l7-8 5-2h5l8-11 8-8 5-3 5-2 17-3 7-10 4-6 7-7z" fill="#F8C9E8"/>
<path transform="translate(1552,226)" d="m0 0 3 4 1 3h2l3 3 1-2 1 2-1 2h-2l-2 4-5 6-5 12 1 5 5 4v2l-6 1-1 4-5 4 3 14 7 2 5 7 1 8-1 4h-2l3 5 3 2 1 4-1 7h-2v-2h-7l-9-6-7-8-3-7-3-10-7-9-2-4v-8l14-28 8-10 4-2 2-10z" fill="#FAA3DB"/>
<path transform="translate(1518)" d="m0 0h31l6 4 8 10 7 5 10 5 1 2-2 5v3l2 7v4l1 2 2-2-1 5-4 3-10-1-16-8v-2l-4-2-4-6v-2l-5-2-10-5-5-6-7-17z" fill="#815098"/>
<path transform="translate(1353,658)" d="m0 0 3 1-14 7-7 6-5 3-2 4 2 1-2 4h2v2h-3l-5 10-5 4-7 3h-7l-6-2-11-7-8-4-4-1h-14l-17 7-17 1-9 3-7 5-6 9-2 4v13l3 10 5 5 5 1-1 2-7-1-1-3-5 3-2 2 1 7 1 4-3-3-3-6 2-5 4-4-1-5-3-3h-8l-12 3-8 4-9 7-9 2-2 5-4 8-4 11v5l2 4-7-2-7-3h-15l-13 5-10 7-7 8-4 8 8 2 4 4v5l6 4v3l-12-1-8 3-18-4h-10l-11 4-5 2-2 4-5 3-2 3h-2l-1 3-4 2 2-4 9-9 6-4 1-2 11-4 1-1h14l6 2 11 1 5-4 5-2-1-4-5-3-23-1h-15l-8 2 3-3 9-3 16 1 15-2 2-7 9-10 9-6 13-6 4-1h7l14 4v-15l5-8 7-8 10-7 16-8 4-1 17-1 1-9 7-14 9-9 10-4 9-1 7 1 9-5 7-3 9-4 10 1 12 6 2 2v-7l3-8 2-1-1 4v14l5 5h16l6-4 5-9 1-10 6-5 15-10z" fill="#412D65"/>
<path transform="translate(1e3 834)" d="m0 0h14l-2 2-12 2-6 3-6 4-10 11-4 6-9 1-7 8v6l5 7-5-1-8-3h-9l-8 4-6 7-1 4h1v5h-66l3-3 11-5 8-3 8 1v-2h-2l2-4 9-7 7-3h15l5 1 2-4 3-3 5 1h3l-3-3 7 1 10 4 3-4 5-5 5-2 6-1 5-10 9-9 10-5z" fill="#A261AA"/>
<path transform="translate(1073,872)" d="m0 0h14l11 4 6 5 11 6 6 5 3 5v3h-96l2-2 18-5h2l1-4 9-10 5-4z" fill="#A361AA"/>
<path transform="translate(1278,739)" d="m0 0v3l-3 5-2 2h14l8 4 7 11v2l13-6h6l-4 3-10 4-11 8-5 6-1 2 5 1v2l4 2v3h2v3l-4 2-4 6-2 2-6-1-5-3h-5l-1 2h-2v2h-2v2l-7 1-10-5-6-1v-1l12-1 4-1 5 6 3-1v-3l-2-1 2-3 2-8 6-6-2-6-5-2-4-2-2-7h-3v-7l2-5h2l2-4z" fill="#A462AA"/>
<path transform="translate(1479,717)" d="m0 0h10l14 1 7 2v3l4 4 1 4-1 2-28 1-17 4-10 4-9 6-5 6-2 10-10 4-8 6-5 7 4 4-2 4-5 6-4 10-2-1v-10l4-6 3-5h-3l-1-3 6-9 7-7 5-2 1-12 6-10 7-7 10-6 11-4 17-3 1-1-6-1z" fill="#672F79"/>
<path transform="translate(1452,531)" d="m0 0h10l-4 2-7 1-8 5-3 3h-2l-1 7 6-3 8-6h5l1 3-3 6-5 6-9 5-2 3h-3v2h-2v5l-2 3 1 7v11l-3 9-4 2-4-3-7 2 2-4 4-3h3l1-10h-2l-3 9-5 4-7 8-3 2-3-1-1-5-2-1 1-11 5-9 4-4 8-5h5l1-7 4-10 9-12 12-9z" fill="#F8C7E7"/>
<path transform="translate(901,855)" d="m0 0h12l5 4v2l-5-1-1-1-13-1-5 3-2 3h-2l-1 3-2 3-2 4v3l-4 7-18-1-11-1-10 3-8 6-5 9h-26l2-5 10-13 10-7 11-2 18-1 4-1-6-1v-1h11l10 4 8 6 1-8 6-9 6-5z" fill="#F7C8E6"/>
<path transform="translate(1511,438)" d="m0 0 7 1-3 9-1 5v13l3 9v5l2 1-5 1-1 3h5l-2 4-4 2v2h-3v2l-4 1-2 4-4 4 1-4 8-10v-1l-5 5-4 5-3 7 2 1h-2l-1 12-4 9 3 1-2 1 1 4 5 1 3 3-1 2-2 1-5 19-1 3h-5l-1-2v-8l1-3-4-2-1-3v-17l8-13 1-2v-8l-5-6-1-6 8 4 1-7 5-4 5-1 3-5h2v-9l-3-8-1-1v-7l4-15z" fill="#F9DBF0"/>
<path transform="translate(1572,855)" d="m0 0h15l7 3 6 4v38l-4-1-9-8-13-8-12-4-5-1 5-4 6-8 2-10z" fill="#5F4193"/>
<path transform="translate(1114,778)" d="m0 0h15l12 5 7 1 1 8-17 2-7 3-3-1 2-3v-7l-7 3-5 4-10 14-7 8-4-2-3-2v-2l-6-1-2-1 2-6 6-8 8-7 12-6z" fill="#F7C8E7"/>
<path transform="translate(909,868)" d="m0 0 6 2v3l3 1-11 1-10 5-7 6-1 2h2v2h-8l-15 6-7 4h-32l2-6 6-7 8-4 9-2 19 2h8l4-4 9-7 8-3z" fill="#D37FC1"/>
<path transform="translate(1045,808)" d="m0 0h15l23 1 7 5-1 4-6 3-4 3-16-2-1-1h-14l-8 4h-4l-1 3-9 7-7 7-3-1v-6l7-9 5-8 7-7z" fill="#F4C6E5"/>
<path transform="translate(1542,342)" d="m0 0h12l3 2-10 2-8 4-5 6-1 8v2l-11 9-11 6h-2v2l-5 4-3 5-2 6v13l1 2 2 16 3 10 4-1 1-2 9-1 3-1v2l-3 2-8 1-3 8-3 16h-2v-9l3-14h-6l-5 5-12 9-4 8-5 17-4 6-2 1 1-16 3-9 6-10 6-5 14-8h4l-5-10-1-6v-28l6-12 4-5 10-7 10-5 1-9 7-10z" fill="#3D2B61"/>
<path transform="translate(1153,821)" d="m0 0 2 3-1 2h2l1-3 1 3-5 8-3 9-10 7-4 5-8 2-10-1-7-4v-4h-3l1-5 7-5 2-3 5 1 6 1 6-7 9-5 3-2z" fill="#A563AB"/>
<path transform="translate(1509,503)" d="m0 0h5l3 2 3 7 1 3h2l1 5 1 7 1 3v4l-9 4-10 2-6-5-4-6-1-4v-10l1-6 6-2 3-3z" fill="#FAA2DA"/>
<path transform="translate(1518)" d="m0 0h13l4 6v2h2l6 9 5 8 3 3 5 8 10 6 10 4 5 3-2 4-10-1-16-8v-2l-4-2-4-6v-2l-5-2-10-5-5-6-7-17z" fill="#F6C0E3"/>
<path transform="translate(1448,530)" d="m0 0h5l-1 2-8 4-10 8-9 14-4 13-6 2-7 4h-2l-6 12-4 20h-24l-9 2-8 4-9 4-5 5-7 8-4 6-4 18-2 4-16 6-11 7-2 1 2-4 10-7 11-4h4v-9l2-11 6-10 7-8 14-9 14-5 7-1 22-1-1-4v-12l4-9 6-7 12-4h2l1-8 8-11 9-10 12-9z" fill="#3D2B62"/>
<path transform="translate(1532,660)" d="m0 0 1 3h-2v2h-2l-2 5-3 3-1 13-4 2-3 3-11 5-4 4-5 12v5l-7 1-10-1-1-1v-8l4-6 4-4 4-5 6-4h7l1 1 1-5 3-5 10-6-1-2 7-3 7-8z" fill="#D581C2"/>
<path transform="translate(1552,226)" d="m0 0 3 4 1 3h2l3 3 1-2 1 2-1 2h-2l-2 4-5 6-7 16-4 5h-6l-5 8-5 11 1 6-3-1-3-6v-8l14-28 8-10 4-2 2-10z" fill="#F8C8E7"/>
<path transform="translate(1186,809)" d="m0 0h14l12 4 5 5-2 3-6-1-7-2h-9l-8 3-5 2v3l-5 1-2 5-4 2-3 8-7 4h-8l2-9 5-9 5-6 13-7 5-3z" fill="#A462AB"/>
<path transform="translate(1386,813)" d="m0 0h14l5 1-1 2-12 4-4 2-2 4-9 8-4 7h-11l-10 4-8 6-6 7h-2v2h-2l-3 9-2 3-1-10 5-9 9-9 6-4 8-3h8l2-9 7-8 10-6z" fill="#662F79"/>
<path transform="translate(1593,258)" d="m0 0 7 1v61l-4-1-5-7-1-4v-8l-1-4v-2l-2-4v-20l-2-5 1-4z" fill="#A562AB"/>
<path transform="translate(1599,140)" d="m0 0h1v66l-6 5-5 5-2-1 3-11 1-8h-7l-4-2 12-3 1-1v-8l-3-9-5-3 1-6 3-8h3l1-10 2-5z" fill="#835199"/>
<path transform="translate(1257,740)" d="m0 0h6l1 3 3 3-1 2-3 1-2 14h-9l-10 3-8 6 3 2-1 1-14 1-10 4-10 7-2 3 3-1h5l-1 5 5-1 3-3h2l-2 4-6 7 1 4 7 6v1h-6l-10-4-5-1v-2l-6-1 2-3h2v-7l6-9 11-8 9-4 2-1 9-1 5-4 5-2v-2l7-3 9-2 1-2h-2l-1-2 1-13z" fill="#A462AB"/>
<path transform="translate(1424,724)" d="m0 0 10 3 2 1v2l3 1v3l-7 9-2 5h-2v12l-7 5-4 1v-2l4-4 4-1-2-6h3v-5h-2l-1 4h-5l-4-1h-2v4l-4 1 1-14 3-7 3-3 7-3 8-1-7-1z" fill="#D37FC1"/>
<path transform="translate(1117,774)" d="m0 0h7l14 4 1-3h1l3 9-7-2-7-3h-15l-13 5-10 7-7 8-4 8 8 2 4 4v5l6 4v3l-12-1-8 3-18-4h-10l-11 4-5 2-2 4-5 3-2 3h-2l-1 3-4 2 2-4 9-9 6-4 1-2 11-4 1-1h14l6 2 11 1 5-4 5-2-1-4-5-3-23-1h-15l-8 2 3-3 9-3 16 1 15-2 2-7 9-10 9-6 13-6z" fill="#432E66"/>
<path transform="translate(1562,237)" d="m0 0h4v11l-6 18h-2l-1 5-1 3h-2l-1 6-6 13-2 1-4-12 1-3 5-4 1-3 6-1-7-7 1-7 6-12 6-7z" fill="#D682C3"/>
<path transform="translate(1584,53)" d="m0 0h3l2 1 2 6 6 3 2 5-1 7-4 4 1 11 5-1v28l-8-1-6-8v-2l-3-1v-1h12l-4-9-1-18-2-4-3-1-1-2z" fill="#7F4E97"/>
<path transform="translate(1587,597)" d="m0 0 9 1 4 2v15l-9 11-1 2h-2v2l-5-1-3-8h-2v-2l-5 1-3-1v-2h5l4-5 5-5 2-7-3-1z" fill="#A864AD"/>
<path transform="translate(1599,695)" d="m0 0h1v38l-2-1v-2l-5-2-5-5v-7h-12l1-2h3l1-10 3-5 1-1 13-2z" fill="#632E77"/>
<path transform="translate(1596,227)" d="m0 0h4v32h-7l-7 3 1 6 1 2v22l3 4-4-2-3-3v-10l1-1v-8l-1-7h-2v-10l3-7-2-1 5-4 3-7 4-8z" fill="#815098"/>
<path transform="translate(903,852)" d="m0 0h9l12 6 9 7v1l-8-1-12-9h-12l-9 3-7 8-3 7-1 5-4-2-10-6-8-1-1 2-4 1-18 1-13 3-8 6-12 17-3-1 7-10 7-9 9-7 15-5 4-1h25l7 3 5 3 6-11 8-7z" fill="#4C336C"/>
<path transform="translate(1578,206)" d="m0 0 2 3v3l5 3-2 4-10 7-6 11h-5l-1-1-3-1v-2l-3 1-3-7-2 1 2-4 4-3 14-6z" fill="#F7A4DA"/>
<path transform="translate(1452,531)" d="m0 0h10l-4 2-7 1-8 5-3 3h-2l-1 7 6-3 8-6h5l1 3-3 6-5 6-9 5-2 3h-3v2h-2v5l-1-3h-6v-6l4-3 2-9 2-6 10-8z" fill="#F9C9E7"/>
<path transform="translate(1542,342)" d="m0 0h12l3 2-10 2-8 4-5 6-1 8v2l-11 9-11 6h-2v2l-5 4-3 5-2 6-3 1 1-8 6-10 5-5 5-4 9-5 4-2 1-9 7-10z" fill="#3A295F"/>
<path transform="translate(1366,609)" d="m0 0h17l-3 2 1 2-4 4-3 1-1 2-5 1v-3l-6 2v4h3v2h-20l1 4h-6l-5 2 2-5 6-6h2l1-3 15-7z" fill="#F6D7EE"/>
<path transform="translate(1583)" d="m0 0h17v32l-6-4-7-8-4-11z" fill="#624395"/>
<path transform="translate(1593,31)" d="m0 0 4 2 3 1v55l-5 2-1-1-1-11 4-4 1-7-2-5-6-3-3-8 5-11 2-8z" fill="#614295"/>
<path transform="translate(1180,731)" d="m0 0h13l1 2-13 4-11 4-10 8-9 2-2 5-4 8-4 11-3 1v-13l5-8 7-8 10-7 16-8z" fill="#3D2B62"/>
<path transform="translate(1514,378)" d="m0 0h5v2h-3l-2 6-6 10-2 7h-2v10l-1 4 2 4h-2l1 7 2 2 2 3 1 6-2 1-4-4-3-12-1-11-1-2v-13l4-9 5-6h2v-2z" fill="#F2D1EB"/>
<path transform="translate(901,855)" d="m0 0h12l5 4v2l-5-1-1-1-13-1-5 3-2 3h-2l-1 3-2 3-2 4v3l-4 7-18-1-14-2 3-1 1-3h4v2l12 1v-3l-10-5v-2h-7v-1h11l10 4 8 6 1-8 6-9 6-5z" fill="#F8D8EF"/>
<path transform="translate(1585,170)" d="m0 0 6 3 3 9v8l-5 3-4 1-9-5-1-2v-9l3-3 5-1v-2h2z" fill="#D984C4"/>
<path transform="translate(1072,869)" d="m0 0h15l10 4 6 3 2-5 4-2-4 6v4l11 6 7 6 2 4v5l-2-3-6-8-10-6-7-4-6-4-7-2h-14l-9 4-8 7-5 6-1 3-16 5-6 2h-5l4-3 16-5 4-2 8-10 8-7z" fill="#322459"/>
<path transform="translate(1186,809)" d="m0 0h14l8 3-4 2h-1l-1 2-12 1-16 8-9 4-4 2 1-4 7-8 9-6z" fill="#D481C2"/>
<path transform="translate(1533,305)" d="m0 0 3 4 4 5 7 2 5 1v-2h-2l-2-5 3-1 5 9 5 4 1 4-1 7h-2v-2h-7l-9-6-7-8-3-7z" fill="#F8C8E7"/>
<path transform="translate(1498,465)" d="m0 0h2l-2 4-10 12-3 6v8l6 9 1 1v8l-7 12-2 3v17l3 6-8 3-4 3 1 2-6 4-2 2-1 4v7l2 8h-2l-3-7v-8l3-7 8-8 6-4-1-5v-15l5-9 5-8 1-7-6-7-2-5v-9l7-11z" fill="#4E346F"/>
<path transform="translate(1120,786)" d="m0 0h4l1 9-2 1 1 2-7 6-6 13h-1l1-8-2 1v-3l-8 3-2 1 2-4 12-16z" fill="#D581C2"/>
<path transform="translate(1169,869)" d="m0 0h15l1 3-2 3-10 3-6 4-4 2-2 4-4 12h-2v-14l4-9 8-7z" fill="#73478C"/>
<path transform="translate(1366,880)" d="m0 0h6l2 8 5 2 2 4v6h-24l2-4 5-6z" fill="#A162AB"/>
<path transform="translate(1513,415)" d="m0 0 1 2 6-1 3 1v2l4-4h2l-2 6-1 8-4 5-3 2h-8l-2-2v-7z" fill="#F8A3DA"/>
<path transform="translate(1490,526)" d="m0 0 1 2 3 1-2 1 1 4 5 1 3 3-1 2-2 1-5 19-1 3h-5l-1-2v-8l1-3-4-2-1-3v-17h1v15l3 1 1 4 2-1v-15z" fill="#FAA2DA"/>
<path transform="translate(1406,580)" d="m0 0 2 3h4v7l-1 2h-2l1 2h4l5-5 1 2-5 5-8 9-3 2-3-1-1-5-2-1 1-11 3-6z" fill="#F8DAF0"/>
<path transform="translate(1229,693)" d="m0 0 12 1 2 2-17 1-9 3-7 5-6 9-2 4v13l3 10 5 5 5 1-1 2-7-1-1-3-5 3-2 2 1 7 1 4-3-3-3-6 2-5 4-4-1-5-3-3-6-1 2-3 4-1 1-9 7-14 9-9 10-4z" fill="#4A326C"/>
<path transform="translate(1e3 834)" d="m0 0h14l-2 2-12 2-6 3-6 4-10 11-4 6-9 1-7 8-1 6-2-2-12-2-1-4-5-2 4-1 13 5 3-4 5-5 5-2 6-1 5-10 9-9 10-5z" fill="#4B336C"/>
<path transform="translate(1472,603)" d="m0 0v3l-2 9-5 6-7 10-1 9h6l2-10 2-2-1 10-1 2h5v1l-13 1-1 4-5 5-2 3v10h-9l3-3h3v-6l5-8 3-3 1-12-9 2-9 4-5 7-2 13h-2v-5l-8 4 2-4 5-3 6-11 6-5 11-4 6 1-1-4 5-1 2-5 5-7 2-7z" fill="#583473"/>
<path transform="translate(1494,502)" d="m0 0 3 1-1 3 2 1h-2l-1 12-3 6-2 7v15l-3 1-2-4-2-1v-17l7-11 1-2v-9h3z" fill="#F7DAF0"/>
<path transform="translate(1576,192)" d="m0 0 5 1 3 2 7 1v8l-3 11-3 2-2-3-4-2-1-7 1-3h-2l-4-6 1-3z" fill="#D783C3"/>
<path transform="translate(1073,872)" d="m0 0h14l4 1 1 5-10 2-19 5h-5l4-8 9-4z" fill="#D17EC0"/>
<path transform="translate(1599,140)" d="m0 0h1v21l-8 6v4l-5 1-2-2 1-6 3-8h3l1-10 2-5z" fill="#A562AB"/>
<path transform="translate(1552,626)" d="m0 0h4l-1 5-4 6-8 13-4 7h-4v-7l4-10 8-10z" fill="#D17FC0"/>
<path transform="translate(842,867)" d="m0 0 18 1-2 4-4 1-18 1-13 3-8 6-12 17-3-1 7-10 7-9 9-7 15-5z" fill="#B46DB3"/>
<path transform="translate(1576,165)" d="m0 0h2v2h6v3l-3 2-1 3-4 1v11l3 3 6 3-4 1-5-1-4 1-3-7v-12l2-6z" fill="#F3BFE2"/>
<path transform="translate(1524)" d="m0 0h7l4 6v2h2l6 9 3 6-8-1-6-4-7-10z" fill="#D883C4"/>
<path transform="translate(1087,818)" d="m0 0 7 1 4 3v3l-12-1-8 3-18-4h-10l-11 4-5 2-2 4-5 3-2 3h-2l-1 3-4 2 2-4 9-9 6-4 1-2 11-4 1-1h14l6 2 11 1 5-4z" fill="#51306E"/>
<path transform="translate(1497,398)" d="m0 0h1l1 13 1 2 2 16 3 10 4-1 1-2 9-1 3-1v2l-3 2-8 1-3 8-3 16h-2v-9l3-14-5-1-1-5-3-6-1-6v-23z" fill="#483169"/>
<path transform="translate(932,868)" d="m0 0 5 1h4l2 3 12 2 1 3 2 1-1 2-9-2-10 1-4 2-5-1-3-5z" fill="#C678BB"/>
<path transform="translate(1187,806)" d="m0 0h9l10 3v1h-20l-9 5-8 5-6 3-8 11-4 11-10 6-4 5-2 4-1-2 3-6 8-7 5-3 2-8 6-10 4-2v-2h2v-2l9-4 9-6z" fill="#3C2760"/>
<path transform="translate(1531)" d="m0 0h9l2 8 3 6 1 3h2l4 5v2l5 4 1 1 2 1v2l5 2v2l-6-1-5-3-2-2-2-4-3-1-10-15v-2h-2l-4-7z" fill="#A562AB"/>
<path transform="translate(1583)" d="m0 0h4l3 11 5 5 1 5h2l2 3v8l-6-4-7-8-4-11z" fill="#84529A"/>
<path transform="translate(1585,49)" d="m0 0 1 3-1 1v21l-2 5h-2l-1 2-4-11-1-11 3-1 2-4z" fill="#D281C2"/>
<path transform="translate(1152,778)" d="m0 0h3v2h-2l-2 5-1 9-12 1-10 3-10 9-4 8-1 3-1 13-2 5-1-3 2-18 6-12 9-8 12-3h11l-2-7 3-5z" fill="#4C306C"/>
<path transform="translate(1475,485)" d="m0 0 3 3v8h2v2l4 2-1 2-5-2-6-3-1-1-4 12-1 14h-2v6l-2 1-3-2v-5h4l1-10 3-13 6-12z" fill="#FBA3DB"/>
<path transform="translate(883,891)" d="m0 0 7 1 4 4 1 4h-30l4-4z" fill="#A663AB"/>
<path transform="translate(1598,130)" d="m0 0h2v10l-5 2-2 11-1 3-3 1-3 10-1-4 1-5-2-8v-4l6-3 3-4 2-6z" fill="#D782C3"/>
<path transform="translate(1555,346)" d="m0 0h7l-1 11-5 4-10 1 1-7 3-5z" fill="#FAA2DA"/>
<path transform="translate(1574,322)" d="m0 0h2l4 8v2l12 1 2 1 1 8-7 8-5 4-2 3-1 14-5 6-10 7-2 2 1-4 12-9 1-2 1-13 3-6 10-8 1-2v-6h-10l-5-5-3-5z" fill="#462B67"/>
<path transform="translate(1432,546)" d="m0 0 2 1-1 5-3 7-3 3-1 5h3l1-3v3h2l-1 6-1 9h-1l-2-9-3-1-1 1h-6l1-2h3l1-7 4-10z" fill="#F8D9EF"/>
<path transform="translate(1465,489)" d="m0 0 1 2-3 5-3 9v22l1 3h-7l-1-1v-15l8-19z" fill="#422D65"/>
<path transform="translate(1257,740)" d="m0 0h6l1 3 3 3-1 2-3 1-2 14-13-2v-1l9-2 1-2h-2l-1-2 1-13z" fill="#A562AB"/>
<path transform="translate(1559,621)" d="m0 0h15l6 3 5 6-1 2-5-4v-3l-5-1h-14l-9 4-6 5-7 11-4 12h-2l1-8 5-10 6-8 10-8z" fill="#322459"/>
<path transform="translate(1426,581)" d="m0 0h2v2l2 1v15l-3 3-4-1-2-2-7 2 2-4 4-3h3l1-12z" fill="#F9DAF0"/>
<path transform="translate(1547,345)" d="m0 0h6l-5 4-2 4-3 2-3 7-1 2h-7l1-8 6-7z" fill="#F3D4EC"/>
<path transform="translate(1247,761)" d="m0 0h6l-1 2-10 3-8 6 3 2-1 1-14 1-10 4-10 7-6 8-2 2 1-5 5-7 11-8 9-4 2-1 9-1 5-4 5-2v-2z" fill="#824B93"/>
<path transform="translate(1397,598)" d="m0 0 3 1 2 5 1 4-2 2-1 10-3 4h-6l3-3 1-4-4-2 1-5-4-1 6-1 2 1z" fill="#F8D8EF"/>
<path transform="translate(1399,620)" d="m0 0 1 2-4 5-7 3-3 1-8 16-2 8-1 9-5 3-5 9-2 9h-1v-8l4-8 7-8 2-14 4-10 6-8 3-3 9-3z" fill="#412963"/>
<path transform="translate(1596,103)" d="m0 0 4 1v13l-8-1-6-8v-2l-3-1v-1h12z" fill="#A562AB"/>
<path transform="translate(1451,540)" d="m0 0h5l1 3-3 6-5 6-2 1h-6v-5l8-10z" fill="#FAC5E6"/>
<path transform="translate(1500,439)" d="m0 0 6 1v5l-3 2-2-2-4 5-6 1-2 4h-2l-1 2-6 4 1-6 8-7 9-6z" fill="#F4D5ED"/>
<path transform="translate(1446,543)" d="m0 0 2 1-6 7-1 5 4 1-6 4-1 2h-3v2h-3l2-15 1-4h2v3l6-3z" fill="#FAA3DB"/>
<path transform="translate(1531,263)" d="m0 0 1 2-1 7-5 12 1 10-3-1-3-6v-8l7-14z" fill="#F3D2EB"/>
<path transform="translate(1203,812)" d="m0 0 2 1 5-1 6 4 1 3-2 2-6-1-7-2h-9l-8 3-5 2v3l-4-2 9-6 5-2 12-1z" fill="#A663AC"/>
<path transform="translate(1579)" d="m0 0h4l2 13 5 10 10 9v2l-4-1-10-9-6-12-1-5z" fill="#302458"/>
<path transform="translate(825,875)" d="m0 0h10l-3 1-1 2-4 1-6 3-3 5-3 1-1 2h-2l-1 6h-2l-1 4h-5l2-5 10-13z" fill="#F6D5ED"/>
<path transform="translate(1480,533)" d="m0 0h1l3 15 2 3-8 3-4 3 1 2-6 4-2 2-1 4v7l2 8h-2l-3-7v-8l3-7 8-8 6-4-1-5v-11z" fill="#4F2D6C"/>
<path transform="translate(1556,41)" d="m0 0 9 3 5 2 9 1 2 4-2 2-10-1-12-6z" fill="#E7A8D7"/>
<path transform="translate(1539,550)" d="m0 0 1 3-4 11-3 6v8l2 3v16l2 7-4 1-8 5 2-4 5-4h2l-2-4v-17l-2-4 1-9 5-11z" fill="#543070"/>
<path transform="translate(1534,729)" d="m0 0 6 4 3 5v15h-3l-4-10z" fill="#66307A"/>
<path transform="translate(1516,673)" d="m0 0 3 1-12 8-2 5v5l-2-1v-2l-7 1-8 6-3 5-5 5-2 8-2-4 1-4 7-9 9-8 3-2 6-1 2-6 11-6z" fill="#4D2E6C"/>
<path transform="translate(1320,667)" d="m0 0 3 1-1 4-6 10-1 2h-5l-1-8 4-5z" fill="#F9DEF2"/>
<path transform="translate(1521,609)" d="m0 0 4 1-2 5-6 7-4 9-1 12-4 9v11l1 6-3-1v-18l3-7v-11l8-15 3-3z" fill="#502F6D"/>
<path transform="translate(1463,499)" d="m0 0 3 1-1 12-2 10-3 1-1-1v-17l2-5z" fill="#F6D2EB"/>
<path transform="translate(1422,584)" d="m0 0h2l-1 10-6 3-5 5-1 6-8 3-1 8-2 1v-10l12-11 5-6h2z" fill="#5F3C7A"/>
<path transform="translate(901,855)" d="m0 0h12l5 4v2l-5-1-1-1-13-1-5 3-2 3h-2l-1 3-2 3-5 3 2-6 8-9z" fill="#F7D5ED"/>
<path transform="translate(1377,793)" d="m0 0 5 3-2 4h-3l1 6-1 1h-5l-8-6 3-3 6-1 1 1z" fill="#D883C4"/>
<path transform="translate(1547,750)" d="m0 0h10l7 3v3l-4 1-11 1-3-2v-5z" fill="#672F79"/>
<path transform="translate(903,852)" d="m0 0h9l12 6 9 7v1l-8-1-12-9-12-1z" fill="#402C64"/>
<path transform="translate(1070,815)" d="m0 0 8 5 4 2-5 2-14-2-6-2v-2l2-1h8l3 1z" fill="#EB97D1"/>
<path transform="translate(1347,703)" d="m0 0 1 4 6 1v2h-6l-4 1-1 5-5 4v-2h-2v7h-2v2h-2l1-6 3-7 4-4 1-2 4 1z" fill="#F9A1DA"/>
<path transform="translate(1229,693)" d="m0 0 12 1 2 2-17 1-9 3-7 5-8 12 1-7 9-10 6-4z" fill="#5F3D7A"/>
<path transform="translate(1597,440)" d="m0 0 3 1v21l-4-3-2-5v-9z" fill="#C174B8"/>
<path transform="translate(1307,666)" d="m0 0 2 1-1 3-6 3h-2l-2 5-3 7-1 8h-2v-14l2-5 10-7z" fill="#F7D9EF"/>
<path transform="translate(1547,404)" d="m0 0h11l5 2v2l-6-2h-8l-10 5-7 5-3 5v6l-5 7h-2l2-4 1-1 2-10 7-8 11-6z" fill="#4E316D"/>
<path transform="translate(1257,837)" d="m0 0 2 1-11 12-2 4v6l2 4-6 5-2 5v9l-2-1-1-6 2-7 5-5-1-9 3-6z" fill="#302458"/>
<path transform="translate(1087,818)" d="m0 0 7 1 4 3v3l-12-1-8 3-6-1 2-3 7-1 3-3z" fill="#7F4B92"/>
<path transform="translate(1189,734)" d="m0 0h8l5 6-1 4-5 5-3-1v-2l3-2 1-3h2l-2-5h-2l-1 2-5-1-9 3-3-1 4-3z" fill="#F7D6EE"/>
<path transform="translate(1315,760)" d="m0 0h6l-4 3-10 4-11 8-5 6-1 2 5 1v2l4 2-3 1-5-4-3-3 3-5 5-5 6-5 10-6z" fill="#5C3476"/>
<path transform="translate(943,877)" d="m0 0 11 1 3 2 1-2 5 6-5-1-8-3h-9l-8 4-6 7-3 6-1-3 6-10 5-4z" fill="#302458"/>
<path transform="translate(1262,711)" d="m0 0 10 1 3 3-5-1h-10l-3 1-3 5-4 3v8l1 3-3-1-1-2v-8l5-8 5-3z" fill="#6F3C84"/>
<path transform="translate(1457,713)" d="m0 0 8 1 3 3h9v1l-17 3-4 1v-2l-3 1 1-5z" fill="#A361AA"/>
<path transform="translate(1547,454)" d="m0 0h2v2l-8 7-10 18-1 1-11 2-6 1v-3l16-3 12-20z" fill="#472C67"/>
<path transform="translate(1583)" d="m0 0h4l3 11 1 4h-2l1 6-3-1-4-11z" fill="#AD68AF"/>
<path transform="translate(1450,630)" d="m0 0h4v2l-8 2-9 4-5 7-2 13h-2v-5l-8 4 2-4 5-3 6-11 6-5z" fill="#52306F"/>
<path transform="translate(1261,798)" d="m0 0 4 2 3 4 4-2v2h-2v2l-7 1-10-5-6-1v-1l12-1z" fill="#A663AC"/>
<path transform="translate(1112,818)" d="m0 0h1l1 13 4 4-2 4-4 2-5 2v-6l3-1z" fill="#864E96"/>
<path transform="translate(1422,727)" d="m0 0h8l2 2-10 1-8 4-3 5-2 13-2 1v-10l3-9 7-6z" fill="#543070"/>
<path transform="translate(1511,438)" d="m0 0 7 1-3 9-2 16h-1v-14l-2-4 1-2h-2l-1 3 1-7z" fill="#F8C3E6"/>
<path transform="translate(1599,199)" d="m0 0h1v7l-6 5-5 5-2-1 3-8 1-2h2l2-4 1 2z" fill="#76468C"/>
<path transform="translate(1552,298)" d="m0 0 5 5 1 8-1 4h-2l-1 2-3-7v-11z" fill="#D782C3"/>
<path transform="translate(1586,216)" d="m0 0v3l-10 9-1 3h-2l-2 4-5 4 2-5 4-8 8-6z" fill="#4F2F6D"/>
<path transform="translate(937,866)" d="m0 0 7 1 10 4 3-4h2l-2 10-2-2-12-2-1-4-5-2z" fill="#3C2A61"/>
<path transform="translate(1584,266)" d="m0 0h2l2 4v22l3 4-4-2-3-3v-10l1-1v-8z" fill="#5B3479"/>
<path transform="translate(1169,869)" d="m0 0h15l1 3-2 3-10 3-6 4-4 2 2-4 10-6 7-2h-16z" fill="#5D2D73"/>
<path transform="translate(1472,603)" d="m0 0v3l-2 9-5 6-7 10-2 11h-1l-1-11h2l-1-4 5-1 2-5 5-7 2-7z" fill="#64397D"/>
<path transform="translate(1049,805)" d="m0 0 16 1h5v1l11 1v1h-36l-8 2 3-3z" fill="#6A4382"/>
<path transform="translate(1202,740)" d="m0 0 4 2 4 4 5 1-1 2-7-1-1-3-5 3-2 2 1 7 1 4-3-3-3-6 2-5 4-4z" fill="#51316F"/>
<path transform="translate(1559,621)" d="m0 0h15l6 3 5 6-1 2-5-4v-3l-5-1h-14l-6 2-2-1 2-3z" fill="#4D2B6A"/>
<path transform="translate(1512,484)" d="m0 0 6 1-2 4-4 2v2h-3v2l-4 1-2 4-4 4 1-4 8-10z" fill="#F1AFDC"/>
<path transform="translate(823,873)" d="m0 0 3 1-4 4-7 5-12 17-3-1 7-10 7-9z" fill="#573975"/>
<path transform="translate(907,874)" d="m0 0h15l5 2v1h-19l-7 3-6 4-5 3 2-4 8-6z" fill="#38265D"/>
<path transform="translate(1223,773)" d="m0 0h5l-3 2-13 5-10 7-6 8-2 2 1-5 5-7 11-8z" fill="#4B2C6A"/>
<path transform="translate(1489,478)" d="m0 0h6l-1 3h-2l-1 8-6 1v5h-1v-8z" fill="#E9A1D5"/>
<path transform="translate(883,889)" d="m0 0 7 1 5 4 1 4h-2l-4-5-7-1-16 6-2 2-4-1 14-7z" fill="#3C265F"/>
<path transform="translate(1589,296)" d="m0 0h4l1 15 3 4v2l3 1v2l-4-1-5-7-1-4v-8z" fill="#8C539C"/>
<path transform="translate(1550,20)" d="m0 0 2 2v2l5 4 1 1 2 1v2l5 2v2l-6-1-5-3-2-2-2-4h-2z" fill="#A663AC"/>
<path transform="translate(842,867)" d="m0 0 18 1v1h-8v2l-20 1v-2z" fill="#CC8AC3"/>
<path transform="translate(1501,417)" d="m0 0 3 2 1 2h-2l1 7 2 2 2 3 1 6-2 1-4-4-2-7z" fill="#F7D7EE"/>
<path transform="translate(1597,487)" d="m0 0 3 1-12 9-6 9-2 7h-2v-7l6-8 8-8h2v-2z" fill="#3D2861"/>
<path transform="translate(1152,778)" d="m0 0h3v2h-2l-2 5-1 9-16 1 1-2 3-1h11l-2-7 3-5z" fill="#3E2962"/>
<path transform="translate(1093,788)" d="m0 0 3 1-1 3h-2l-1 3h-2l-1 4h-2l-1 4-3 2-1-4 6-8z" fill="#F8A9DC"/>
<path transform="translate(1300,712)" d="m0 0h6l1 4-2 8-4-1-2-5z" fill="#F9DAF0"/>
<path transform="translate(1448,530)" d="m0 0h5l-1 2-8 4-10 8-7 10h-3l2-4 9-10 12-9z" fill="#432E66"/>
<path transform="translate(1592,31)" d="m0 0 3 2-3 11-7 14v-6l3-8 1-4z" fill="#302458"/>
<path transform="translate(835,889)" d="m0 0h2l3 6h-2l-1 5h-8l2-6z" fill="#AC67AF"/>
<path transform="translate(1310,705)" d="m0 0h2l-3 11-3 14-7-1-7 2v-2l4-2 7-1 2-6z" fill="#894D96"/>
<path transform="translate(1574,436)" d="m0 0h6v2l-8 3-5 6-4 10h-2v-5l6-10z" fill="#412A64"/>
<path transform="translate(1353,658)" d="m0 0 3 1-14 7-7 6-5 3-3 3-1-3 6-5 15-10z" fill="#5C3877"/>
<path transform="translate(1599,497)" d="m0 0v3l-7 9-4 5-5 14-4-2 1-2 2 1 1-5 6-12 7-7z" fill="#62367A"/>
<path transform="translate(1154,830)" d="m0 0 3 1-4 8-2 6-10 6-4 5-2 4-1-2 3-6 8-7 5-3 2-8z" fill="#492967"/>
<path transform="translate(1120,785)" d="m0 0h7l6 5-4 5-4 2-3-1 2-3v-7z" fill="#F9A3DA"/>
<path transform="translate(1399,620)" d="m0 0 1 2-4 5-7 3-3 1-2 4-5 5v-3l6-8 3-3 9-3z" fill="#412C64"/>
<path transform="translate(1494,502)" d="m0 0 3 1-1 3 2 1h-2l-1 12-4-1-1-3 1-2v-9h3z" fill="#F5CDE9"/>
<path transform="translate(1318,659)" d="m0 0h6l-3 2-13 5-11 7-2 1 2-4 10-7z" fill="#613E7C"/>
<path transform="translate(1073,805)" d="m0 0h7v2l8 2 4 4-1 5h-3l1-4-8-5-12-1 1-2z" fill="#35275C"/>
<path transform="translate(1391,665)" d="m0 0h9l-2 2-13 4-6 5-6 12v-6l5-8 9-7z" fill="#542F6F"/>
<path transform="translate(1515,590)" d="m0 0 1 2-5 9-10 14-1 4h-2l-1-5 5-5 8-11z" fill="#563272"/>
<path transform="translate(1579,356)" d="m0 0 2 1-1 14-5 6-10 7-2 2 1-4 12-9 1-2 1-13z" fill="#6C3A81"/>
<path transform="translate(1096,783)" d="m0 0 3 1-4 4-8 7-6 10-3-1h2l2-7 9-10z" fill="#613F7E"/>
<path transform="translate(1393,605)" d="m0 0 2 1v2l-29 1-1-2 7-1z" fill="#4B326D"/>
<path transform="translate(1278,739)" d="m0 0v3l-3 5-4 4-5 6v8h-3v-7l2-5h2l2-4z" fill="#53306F"/>
<path transform="translate(1482,528)" d="m0 0h1v15l3 1 1 4 4-2v7h-3l-5-5-1-3z" fill="#EBB9DE"/>
<path transform="translate(1424,724)" d="m0 0 10 3 2 1v2l3 1h-2l-1 2-2-1-1 2-4-2v-1l-7-1v-1l8-1-7-1z" fill="#985AA3"/>
<path transform="translate(1397,598)" d="m0 0 3 1 2 5 1 4-4 4-4-3z" fill="#F0B9DF"/>
<path transform="translate(1480,533)" d="m0 0h1l3 15 2 3-10 3 4-4-1-5v-11z" fill="#3A275E"/>
<path transform="translate(1321,807)" d="m0 0h12l1 2h8l-4 3-5-1-4-2-10 1-9 3v-3z" fill="#643279"/>
<path transform="translate(1118,804)" d="m0 0v3l-4 8-1 3-1 13-2 5-1-3 2-18 4-8z" fill="#302458"/>
<path transform="translate(1531,653)" d="m0 0 1 3h2l1-3v6l-9 8-3 3 6-15z" fill="#8D5197"/>
<path transform="translate(1490,512)" d="m0 0 1 3-8 13-1 12h-1l-1-6-1-4 5-9z" fill="#4D316D"/>
<path transform="translate(1427,748)" d="m0 0h1v12l-7 5-4 1v-2l4-4 4-1-2-6h3z" fill="#C879BC"/>
<path transform="translate(1452,531)" d="m0 0h10l-4 2-7 1-8 5-3 3-5 3-2 1 2-4 12-9z" fill="#E79FD4"/>
<path transform="translate(1365,687)" d="m0 0 4 1-12 7-5 6-1 6h-2l1-7 5-7z" fill="#52306F"/>
<path transform="translate(1465,512)" d="m0 0h1v10h-2v6l-2 1-3-2v-5h4l1-9z" fill="#FAA6DC"/>
<path transform="translate(1589,192)" d="m0 0h9l1 3-5 1h-10l-4-2z" fill="#68387D"/>
<path transform="translate(901,855)" d="m0 0h12l5 4v2l-5-1-1-1-13-2z" fill="#F3D0EA"/>
<path transform="translate(1449,697)" d="m0 0 7 1 1 2-8 1-4 2-2 7h-2v-6l4-5h4z" fill="#9C5DA6"/>
<path transform="translate(1423,590)" d="m0 0h1v10l4 1-3 1-4-3-7 2 2-4 4-3h3z" fill="#F7BAE2"/>
<path transform="translate(1574,322)" d="m0 0h2l4 8v2l10 3v1h-8l-5-5-3-5z" fill="#35255B"/>
<path transform="translate(1560,43)" d="m0 0 5 1 5 2 9 1 2 4-2 1-16-6z" fill="#D581C3"/>
<path transform="translate(946,874)" d="m0 0h9l1 3 2 1-1 2-9-2h-8l2-2z" fill="#9C5DA6"/>
<path transform="translate(1554,277)" d="m0 0 1 2-3 9v8l-6-2 5-13z" fill="#422A64"/>
<path transform="translate(1297,775)" d="m0 0 2 2h3l-1 5-6 2-2-1 1-5z" fill="#AB66AE"/>
<path transform="translate(1520)" d="m0 0h4l2 6 4 10-5-4v-2h-2z" fill="#FAA3DB"/>
<path transform="translate(1317,803)" d="m0 0 13 1 6 3-1 2-6-2h-13z" fill="#D883C4"/>
<path transform="translate(1201,761)" d="m0 0 7 1v3l-4 1 1 2 5 2-4 1-5-3z" fill="#7A498E"/>
<path transform="translate(1572,213)" d="m0 0h2l-2 4-10 6h-5l4-4 10-5z" fill="#EFC1E2"/>
<path transform="translate(1591,196)" d="m0 0 7 1v4 2h-4l-1 2h-2l-1 2z" fill="#A663AC"/>
<path transform="translate(1489,692)" d="m0 0 2 1-4 5-5 5-3 5-1 6-2-4 1-4 7-9z" fill="#553170"/>
<path transform="translate(1382,627)" d="m0 0 2 4-5 7-4 8h-1v-6l5-7z" fill="#F6CAE8"/>
<path transform="translate(1166,820)" d="m0 0 2 1-5 7-2 4-2 3-1-2-3 2 2-5 6-8z" fill="#B86FB4"/>
<path transform="translate(1275,749)" d="m0 0h12l8 4 4 6-1 3-6-8-7-3-10-1z" fill="#472865"/>
<path transform="translate(1404,726)" d="m0 0h6l2 5h-13l1-3z" fill="#8B529A"/>
<path transform="translate(1262,711)" d="m0 0 10 1 3 3-5-1h-10l-3 1-3 5-2 1 1-4h2v-4z" fill="#8D539C"/>
<path transform="translate(1495,495)" d="m0 0 3 1v5l-4 1v2l-5-1 1-3 1 1 1-2h2z" fill="#FDF5FA"/>
<path transform="translate(1589,716)" d="m0 0 1 4 1 3 4 3h5v7l-2-1v-2l-5-2-5-5z" fill="#522A6C"/>
<path transform="translate(1590,719)" d="m0 0 5 2 5 5-5 1-6-5z" fill="#804E96"/>
<path transform="translate(1547,404)" d="m0 0h11l5 2v2l-6-2h-8l-12 6v-3z" fill="#4E2E6C"/>
<path transform="translate(936,881)" d="m0 0h2v2l-3 1-3 6-5 4v-4l7-8z" fill="#88539B"/>
<path transform="translate(1045,808)" d="m0 0h11l-2 2-11 2-6 3 2-5z" fill="#F8D9EF"/>
<path transform="translate(1255,687)" d="m0 0m-2 1 2 1v2l-9 4h-5l2-3z" fill="#4A326B"/>
<path transform="translate(1327,676)" d="m0 0 1 3 2 1-2 4h2v2h-3l-3 6-2-1 3-6 1-7z" fill="#402B63"/>
<path transform="translate(1539,550)" d="m0 0 1 3-4 11-4 9h-1l1-8 4-8z" fill="#472C67"/>
<path transform="translate(1509,487)" d="m0 0 2 1-9 10-5 7-1-2 5-8 5-5z" fill="#4B326C"/>
<path transform="translate(1599,385)" d="m0 0v3l-5 6-2 13-2-1v-7l3-8 5-5z" fill="#8C519A"/>
<path transform="translate(1449,650)" d="m0 0 1 2-1 2v10h-9l3-3h3v-6z" fill="#5C3776"/>
<path transform="translate(1584,281)" d="m0 0h3l1 11 3 4-4-2-3-3z" fill="#6C3F85"/>
<path transform="translate(1536,268)" d="m0 0 3 1-6 9-4 5 1-6z" fill="#D682C3"/>
<path transform="translate(1085,820)" d="m0 0 5 1-1 2-11 4-6-1 2-3h8z" fill="#71438B"/>
<path transform="translate(1274,751)" d="m0 0 2 1-6 5-2 5h-2v-7l4-3z" fill="#CF7DBF"/>
<path transform="translate(1597,441)" d="m0 0 1 2-1 2v10l3 5-1 2-3-3-2-5v-9z" fill="#3D2861"/>
<path transform="translate(1557,320)" d="m0 0 4 2 1 4-1 7h-2v-2l-4-1 2-2v-3z" fill="#F39CD6"/>
<path transform="translate(1032,829)" d="m0 0 2 2-7 5-2 3h-2l-1 3-4 2 2-4 9-9z" fill="#6B3E83"/>
<path transform="translate(1187,806)" d="m0 0h9l10 3v1l-15-1v-2z" fill="#492B68"/>
<path transform="translate(1511,438)" d="m0 0 7 1-3 9h-1v-5h-4z" fill="#FBDBF0"/>
<path transform="translate(1436,850)" d="m0 0h4v7h-4l-2-2v-3h2z" fill="#DEAAD5"/>
<path transform="translate(1365,735)" d="m0 0h4v6l-4 2-2-2 1-5z" fill="#FBA3DB"/>
<path transform="translate(1565,48)" d="m0 0 9 1 5 2v2l-10-1z" fill="#F3C1E4"/>
<path transform="translate(1153,780)" d="m0 0 5 5-2 3h-5v-5z" fill="#F3A0D7"/>
<path transform="translate(1535,736)" d="m0 0h2v2h2l2 13h-2l-4-12z" fill="#613D8E"/>
<path transform="translate(1431,711)" d="m0 0 3 1-1 2-8 2-1 6-2-1 1-5 4-4z" fill="#9E5FA7"/>
<path transform="translate(1576,192)" d="m0 0 5 1-1 3-2 2 1 3-4-2-2-5z" fill="#ED98D3"/>
<path transform="translate(933,865)" d="m0 0 7 3v3l-5-2h-6l-2-3z" fill="#EABADF"/>
<path transform="translate(1035,811)" d="m0 0 2 1-2 4-3 3-4 2-3 3 2-5 4-5z" fill="#A67FB0"/>
<path transform="translate(1247,761)" d="m0 0h6l-1 2-10 3-6 3v-2l5-2v-2z" fill="#4A2B69"/>
<path transform="translate(1352,792)" d="m0 0 1 3-4 6-6 5v-6l5-2v-2z" fill="#D883C4"/>
<path transform="translate(1490,783)" d="m0 0h3l1 6-5 1-1-4z" fill="#F4D0EA"/>
<path transform="translate(1152,778)" d="m0 0h3v2h-2l-2 5-1 3-3-1 2-6z" fill="#442E67"/>
<path transform="translate(1346,728)" d="m0 0 2 1-6 8-3 6-1-3 4-8z" fill="#633379"/>
<path transform="translate(1404,606)" d="m0 0 3 1-4 4-1 8-2 1v-10z" fill="#412C64"/>
<path transform="translate(1483,495)" d="m0 0 3 1 4 7 2 2v8l-2-1v-6l-6-7z" fill="#603D7C"/>
<path transform="translate(1592,182)" d="m0 0h2v8l-5 3-4 1-2-2 8-3z" fill="#ED98D2"/>
<path transform="translate(1552,29)" d="m0 0 5 4 2 1v2l5 1-3 2-6-3-3-4z" fill="#69428F"/>
<path transform="translate(1162,884)" d="m0 0v3l-3 6-2 7h-2l1-8z" fill="#312459"/>
<path transform="translate(950,878)" d="m0 0 5 1 2 1 1-2 5 6-5-1-8-3z" fill="#3B2760"/>
<path transform="translate(1164,818)" d="m0 0 2 1-2 1zm-2 2 2 1-6 9h-3l2-4 3-4h2z" fill="#402862"/>
<path transform="translate(1175,813)" d="m0 0m-2 1h2l-2 4-8 4-2-1 5-5z" fill="#37265D"/>
<path transform="translate(1299,789)" d="m0 0 5 3 3 6v11h-1l-2-12-3-5-2-1z" fill="#5A3073"/>
<path transform="translate(1336,668)" d="m0 0 2 2-8 5-3 3-1-3 6-5z" fill="#4E336F"/>
<path transform="translate(825,875)" d="m0 0h10l-3 1-1 2-4 1-5 1z" fill="#F9DCF1"/>
<path transform="translate(1012,835)" d="m0 0h4v6h-2l-2-3h-9l3-2z" fill="#F9D9EF"/>
<path transform="translate(1112,818)" d="m0 0h1l1 13 3 3-7 2z" fill="#91569E"/>
<path transform="translate(1204,782)" d="m0 0h2v2l-7 6-4 7-1-3 6-9z" fill="#452A66"/>
<path transform="translate(1301,770)" d="m0 0m-1 1m-2 1 2 1-6 7-1 3 2 1-5-1 2-5z" fill="#CB7ABD"/>
<path transform="translate(1556,744)" d="m0 0h8l4 2-8 1-11-1v-1z" fill="#672F79"/>
<path transform="translate(1305,724)" d="m0 0h1v6l-7-1-7 2v-2l4-2 7-1z" fill="#593273"/>
<path transform="translate(1599,497)" d="m0 0v3l-7 9-3 2v-3l7-7z" fill="#593475"/>
<path transform="translate(1463,499)" d="m0 0 3 1v6l-6-1 1-5z" fill="#F9D9EF"/>
<path transform="translate(1031,893)" d="m0 0h8l-4 2-13 5v-2z" fill="#804E96"/>
<path transform="translate(1283,835)" d="m0 0h5l1 3h2v2l-4-2-10 1v-2z" fill="#603581"/>
<path transform="translate(1083,811)" d="m0 0 5 1 2 2-1 4-3 1v-5l-3-1z" fill="#F0C7E6"/>
<path transform="translate(1559,621)" d="m0 0h5l-1 2-9 3-2-1 2-3z" fill="#482E69"/>
<path transform="translate(1448,530)" d="m0 0h5l-1 2-8 4-6 4-1-2 10-7z" fill="#523672"/>
<path transform="translate(1503,448)" d="m0 0h1l-1 14-2-1-1-8z" fill="#F9DBF0"/>
<path transform="translate(1584,37)" d="m0 0h6l-1 4-5 2-1-5z" fill="#7C4E98"/>
<path transform="translate(900,877)" d="m0 0 3 1-4 3-9 6 2-4z" fill="#3D2660"/>
<path transform="translate(1321,692)" d="m0 0h2l-1 4-5 4-3 1 1-4 5-3z" fill="#462F69"/>
<path transform="translate(1552,624)" d="m0 0m-2 1h2l-1 3-9 7v-3z" fill="#3D2861"/>
<path transform="translate(1499,467)" d="m0 0 4 1-1 4-7 2 2-5z" fill="#F9DAF0"/>
<path transform="translate(1511,393)" d="m0 0 1 3-4 8h-3l3-7z" fill="#FBA3DB"/>
<path transform="translate(1544,294)" d="m0 0 7 1-1 5-6-1z" fill="#F2BEE2"/>
<path transform="translate(967,860)" d="m0 0h2v2l-5 2-5 4v-4l4-3z" fill="#64407E"/>
<path transform="translate(899,853)" d="m0 0 3 1-1 2-10 3v-3z" fill="#64407D"/>
<path transform="translate(1084,808)" d="m0 0 4 1 4 4-1 5h-3l1-4-5-3z" fill="#4B326B"/>
<path transform="translate(1365,687)" d="m0 0 4 1-11 6-3-1z" fill="#442A65"/>
<path transform="translate(1506,650)" d="m0 0 2 2v11l1 6-3-1z" fill="#884E97"/>
<path transform="translate(1318,659)" d="m0 0h6l-3 2-11 4v-3z" fill="#5F3E79"/>
<path transform="translate(1452,531)" d="m0 0h10l-4 2-7 1-5 2 1-3z" fill="#F8ACDD"/>
<path transform="translate(1465,489)" d="m0 0 1 2-3 5-2 7h-3l2-6z" fill="#4E346F"/>
<path transform="translate(1574,374)" d="m0 0 3 1-12 9-2 2 1-4z" fill="#744088"/>
<path transform="translate(1591,112)" d="m0 0 9 1v4l-8-1z" fill="#86539B"/>
<path transform="translate(922,894)" d="m0 0 5 1v5h-6z" fill="#794B93"/>
<path transform="translate(1097,820)" d="m0 0h6l1 2-3 5-2-1z" fill="#D883C4"/>
<path transform="translate(1118,804)" d="m0 0v3l-5 9-2 1 3-9z" fill="#36255B"/>
<path transform="translate(1124,797)" d="m0 0m-2 1h2l-1 4-4 3-3 1 2-4z" fill="#472D68"/>
<path transform="translate(1485,482)" d="m0 0 1 2-2 11-2-1v-9z" fill="#513670"/>
<path transform="translate(1492,478)" d="m0 0 3 1-1 2h-2v4l-4 1 1-5z" fill="#D883C4"/>
</svg>
